<?xml version="1.0" encoding="UTF-8" standalone="no"?>
<svg
   xmlns:dc="http://purl.org/dc/elements/1.1/"
   xmlns:cc="http://creativecommons.org/ns#"
   xmlns:rdf="http://www.w3.org/1999/02/22-rdf-syntax-ns#"
   xmlns:svg="http://www.w3.org/2000/svg"
   xmlns="http://www.w3.org/2000/svg"
   xmlns:sodipodi="http://sodipodi.sourceforge.net/DTD/sodipodi-0.dtd"
   xmlns:inkscape="http://www.inkscape.org/namespaces/inkscape"
   height="100px"
   width="100px"
   fill="#000000"
   version="1.1"
   x="0px"
   y="0px"
   viewBox="12.368 -0.374 76.099 100"
   enable-background="new 12.368 -0.374 76.099 100"
   xml:space="preserve"
   id="svg857"
   sodipodi:docname="favicon.sv.svg"
   inkscape:version="1.0.1 (3bc2e813f5, 2020-09-07)"
   inkscape:export-filename="C:\Users\Roberto\Documents\GitHub\cepheus-engine-ita\project\images\favicon.png"
   inkscape:export-xdpi="46.049999"
   inkscape:export-ydpi="46.049999"><metadata
     id="metadata863"><rdf:RDF><cc:Work
         rdf:about=""><dc:format>image/svg+xml</dc:format><dc:type
           rdf:resource="http://purl.org/dc/dcmitype/StillImage" /><dc:title></dc:title></cc:Work></rdf:RDF></metadata><defs
     id="defs861" /><sodipodi:namedview
     pagecolor="#ffffff"
     bordercolor="#666666"
     borderopacity="1"
     objecttolerance="10"
     gridtolerance="10"
     guidetolerance="10"
     inkscape:pageopacity="0"
     inkscape:pageshadow="2"
     inkscape:window-width="1366"
     inkscape:window-height="705"
     id="namedview859"
     showgrid="false"
     inkscape:zoom="3.8042345"
     inkscape:cx="23.315886"
     inkscape:cy="55.874297"
     inkscape:window-x="-8"
     inkscape:window-y="-8"
     inkscape:window-maximized="1"
     inkscape:current-layer="svg857" /><rect
     style="fill:#241c1c;stroke:none;stroke-width:1.44567;stroke-linecap:round"
     id="rect1426"
     width="100.94015"
     height="100.67728"
     x="0.15463503"
     y="-0.63686496" /><path
     d="m 75.057692,20.838569 c -3.291554,1.089139 -6.540318,2.652163 -9.678839,4.72224 -1.583121,1.042047 -2.559351,1.056926 -3.742506,0.160211 C 54.577788,20.354804 46.997888,15.911575 38.246781,13.626937 27.410706,10.795569 15.879073,11.744944 2.8139704,16.708365 1.6068199,17.189211 0.57982509,18.744018 0.88410813,20.660985 1.8687745,26.857493 3.5127818,32.615988 5.885673,37.89002 c 4.217322,9.365385 10.476438,16.354277 18.176027,21.662198 4.933136,3.403558 10.299049,6.023524 15.824766,8.354701 0.285004,0.118359 0.562859,0.5051 0.58293,0.872336 0.178317,3.381146 0.168515,6.836124 0.463418,10.163337 0.358633,4.056829 2.041097,6.972716 4.923129,8.74289 2.178561,1.338622 4.548883,2.259104 7.095224,2.814712 6.286235,1.37192 12.9428,1.388412 19.712174,0.973513 0.504096,-0.03112 1.095219,-0.190976 1.578422,-0.515907 1.522213,-1.01255 2.04609,-2.783932 1.317369,-4.369751 -1.882143,-4.090032 -3.780116,-8.162646 -5.689554,-12.223403 -0.244166,-0.515092 -0.215783,-0.928254 0.164217,-1.586433 1.689161,-2.905711 3.357536,-5.823423 5.040634,-8.732634 l 8.732135,5.0415 c 1.462716,0.8445 3.333671,0.343911 4.178671,-1.119672 0.844,-1.461851 0.343911,-3.333672 -1.119671,-4.178672 l -8.733867,-5.0425 c 1.736268,-3.011304 3.484295,-6.016974 5.212634,-9.030546 0.378036,-0.662778 0.723411,-0.870985 1.294809,-0.918675 4.093238,-0.345696 8.192181,-0.719274 12.295768,-1.132895 0.594523,-0.05974 1.28982,-0.216033 1.837343,-0.612371 1.544459,-1.10709 2.000609,-2.877161 1.13486,-4.441636 -1.917826,-3.458228 -3.780465,-6.970041 -5.880449,-10.244763 -2.493168,-3.889706 -5.336063,-7.401667 -9.001468,-9.877001 -2.847503,-1.91998 -5.994853,-2.964609 -9.967502,-1.649779 z m -9.927155,56.144337 c 1.423821,2.977869 2.813384,5.989076 4.310358,9.196241 -6.568096,0.03228 -12.886619,-0.07772 -18.460164,-2.448059 -2.021935,-0.857905 -3.940825,-1.93229 -4.805689,-4.392302 -0.699677,-1.980124 -1.184077,-6.651119 -0.938927,-9.309731 1.394711,0.462291 2.756744,0.909179 4.113912,1.362496 5.011279,1.676209 10.024925,3.350321 15.027704,5.041252 0.289808,0.09804 0.615907,0.263218 0.752806,0.550103 z m 5.29149,-36.685131 c 2.92088,2.488888 5.85176,4.960455 8.774774,7.443647 0.0823,0.06945 0.156097,0.153631 0.261171,0.261638 -1.657268,2.874473 -3.31717,5.755507 -4.97967,8.635041 l -18.333758,-10.585 c -1.462717,-0.8445 -3.333671,-0.343911 -4.178171,1.118806 -0.8445,1.462717 -0.343912,3.333672 1.119671,4.178672 l 18.338954,10.588 c -1.711768,2.968869 -3.42317,5.939104 -5.150437,8.93482 -2.986957,-0.99244 -5.905748,-1.888945 -8.760164,-2.924951 C 51.17972,65.64443 44.758302,63.516652 38.596573,60.86908 29.941173,57.146672 22.160244,51.999636 16.133315,44.232584 11.595675,38.390007 8.375954,31.452727 6.5456688,23.348874 6.3796298,22.614462 6.2003947,21.890906 6.0297577,21.158458 c -0.012775,-0.05587 0.00977,-0.132923 0.02956,-0.3432 1.2599947,-0.398374 2.536731,-0.851747 3.8079026,-1.19748 6.8665195,-1.869161 13.5189655,-2.515535 19.9183355,-1.75957 6.6292,0.785889 12.648098,2.946852 18.274527,6.003592 8.145225,4.422056 15.27475,10.397357 22.361944,16.435975 z M 81.950353,27.52813 c 3.413498,2.305647 5.944337,5.702106 8.324473,9.26559 1.189134,1.782358 2.262494,3.687245 3.526959,5.767128 -3.61706,0.316931 -6.938613,0.62203 -10.259023,0.893148 -0.237741,0.01978 -0.479166,-0.10806 -0.652021,-0.258665 -4.950025,-4.346307 -9.891817,-8.702872 -14.833109,-13.060303 -0.135652,-0.121043 -0.248073,-0.278325 -0.446756,-0.506196 3.023731,-1.695255 5.951383,-3.290097 8.951543,-3.786527 2.177939,-0.360301 3.815548,0.623278 5.387934,1.685825 z"
     id="path849"
     style="fill:#ffffff;stroke-width:1;stroke-miterlimit:4;stroke-dasharray:none" /><path
     d="m 25.450756,31.812302 c -1.206634,2.091951 -1.58106,4.590477 -1.052772,7.037454 0.512122,2.37298 2.060269,4.53351 4.246275,5.927237 2.217915,1.414459 4.88261,1.909072 7.308338,1.361587 2.756003,-0.623537 5.014004,-2.250509 6.355004,-4.57319 1.213,-2.100977 1.565848,-4.628127 0.994695,-7.114863 -1.166524,-5.077521 -6.456558,-8.386912 -11.551801,-7.223692 -2.713192,0.619386 -4.950239,2.248064 -6.299739,4.585467 z m 4.185682,5.802187 c -0.232797,-1.062785 -0.06567,-2.160255 0.469329,-3.086902 0.6045,-1.047025 1.597183,-1.776402 2.79957,-2.050997 2.252949,-0.520222 4.615026,0.970541 5.157692,3.252614 0.262866,1.106703 0.113391,2.223601 -0.421109,3.149383 -0.575,0.995929 -1.548718,1.700459 -2.739847,1.981554 -1.095275,0.259072 -2.311828,0.0382 -3.335853,-0.606133 -0.996946,-0.625239 -1.70078,-1.588163 -1.929782,-2.639519 z"
     id="path851"
     style="fill:#ffffff;stroke-width:0.9;stroke-miterlimit:4;stroke-dasharray:none" /></svg>
